<svg xmlns="http://www.w3.org/2000/svg" version="1.1" xmlns:xlink="http://www.w3.org/1999/xlink" xmlns:svgjs="http://svgjs.dev/svgjs" width="128" height="128" viewBox="0 0 128 128"><g transform="matrix(0.8046875,0,0,0.8046875,12.221578124999994,22.840381346328847)"><svg viewBox="0 0 96 76" data-background-color="#ffffff" preserveAspectRatio="xMidYMid meet" height="101" width="128" xmlns="http://www.w3.org/2000/svg" xmlns:xlink="http://www.w3.org/1999/xlink"><g id="tight-bounds" transform="matrix(1,0,0,1,0.25950000000000273,0.4889714758159158)"><svg viewBox="0 0 95.481 75.02205704836815" height="75.02205704836815" width="95.481"><g><svg viewBox="0 0 95.481 75.02205704836815" height="75.02205704836815" width="95.481"><g><svg viewBox="0 0 95.481 75.02205704836815" height="75.02205704836815" width="95.481"><g id="textblocktransform"><svg viewBox="0 0 95.481 75.02205704836815" height="75.02205704836815" width="95.481" id="textblock"><g><svg viewBox="0 0 95.481 75.02205704836815" height="75.02205704836815" width="95.481"><g><svg viewBox="0 0 95.481 75.02205704836815" height="75.02205704836815" width="95.481"><g><svg xmlns="http://www.w3.org/2000/svg" xmlns:xlink="http://www.w3.org/1999/xlink" version="1.1" x="0" y="0" viewBox="0 11.714 99.99903264666858 78.572" enable-background="new 0 0 100 100" xml:space="preserve" height="75.02205704836815" width="95.481" class="icon-icon-0" data-fill-palette-color="accent" id="icon-0"><path d="M92.857 18.857V26H85.714V18.857zM92.857 33.143V40.286H85.714V33.143zM92.857 47.429V54.572H85.714V47.429zM92.857 61.714V68.857H85.714V61.714zM92.857 76V83.143H85.714V76zM78.571 18.857V83.143H21.429V18.857zM14.286 18.857V26H7.143V18.857zM14.286 33.143V40.286H7.143V33.143zM14.286 47.429V54.572H7.143V47.429zM14.286 61.714V68.857H7.143V61.714zM14.286 76V83.143H7.143V76zM96.429 11.714H3.571C0 11.714 0 11.714 0 15.286V86.715C0 90.286 0 90.286 3.571 90.286H96.428C99.999 90.286 99.999 90.286 99.999 86.715V15.286C100 11.714 100 11.714 96.429 11.714" fill="#8a8d56" data-fill-palette-color="accent"></path></svg></g></svg></g></svg></g></svg></g></svg></g></svg></g><defs></defs></svg><rect width="95.481" height="75.02205704836815" fill="none" stroke="none" visibility="hidden"></rect></g></svg></g></svg>